<svg version="1.0" xmlns="http://www.w3.org/2000/svg"
 width="320.000000pt" height="320.000000pt" viewBox="0 0 320.000000 320.000000"
 preserveAspectRatio="xMidYMid meet" color="#9CA3AF">

<g transform="translate(0.000000,320.000000) scale(0.100000,-0.100000)"
fill="currentColor" stroke="none">
<path d="M161 3093 c-7 -60 -14 -132 -16 -162 -2 -30 -7 -66 -10 -80 -3 -14
-12 -105 -20 -201 -18 -202 -37 -345 -47 -356 -13 -12 -9 -41 6 -53 10 -9 16
-9 21 -1 8 13 29 161 79 560 54 430 52 400 24 400 -24 0 -25 -4 -37 -107z"/>
<path d="M236 3173 c-3 -16 -10 -73 -16 -128 -6 -55 -20 -164 -30 -242 -22
-155 -23 -179 -10 -148 8 18 9 17 9 -7 1 -16 -3 -28 -9 -28 -5 0 -7 -15 -5
-32 4 -26 3 -29 -4 -13 l-10 20 0 -20 c-1 -11 -4 -31 -6 -45 -5 -22 -4 -22 4
-5 8 17 10 14 9 -15 0 -39 -15 -143 -17 -121 -2 30 -14 -1 -27 -76 -7 -43 -14
-81 -14 -84 0 -4 26 -26 58 -50 31 -24 91 -73 134 -109 89 -76 130 -106 140
-102 5 1 7 -3 5 -10 -1 -6 6 -14 16 -16 13 -3 17 3 17 29 0 17 7 75 15 128 24
158 145 1058 145 1080 0 21 -4 21 -199 21 l-199 0 -6 -27z m121 -175 c-3 -8
-6 -5 -6 6 -1 11 2 17 5 13 3 -3 4 -12 1 -19z m20 -25 c-3 -10 -5 -4 -5 12 0
17 2 24 5 18 2 -7 2 -21 0 -30z m173 -107 c-14 -115 -20 -133 -32 -91 -4 17
-4 31 1 33 5 2 7 19 4 38 -4 23 -2 34 6 34 7 0 10 4 6 9 -3 5 0 30 7 56 19 70
22 34 8 -79z m-200 91 c0 -13 -7 -32 -15 -43 -16 -21 -18 -12 -9 35 8 36 24
42 24 8z m97 -29 c-3 -33 -2 -46 3 -33 15 35 12 -26 -9 -163 -17 -113 -37
-351 -25 -294 8 32 21 27 22 -8 1 -25 -3 -30 -17 -25 -20 6 -25 -21 -8 -42 6
-9 6 -13 0 -13 -10 0 -19 -40 -30 -140 -3 -30 -9 -60 -14 -66 -5 -6 -7 -18 -3
-27 6 -18 34 -31 34 -17 0 6 -5 10 -11 10 -6 0 -9 6 -6 13 2 6 10 11 17 9 9
-2 11 10 8 47 -3 28 -2 48 2 46 4 -2 12 7 18 20 6 13 7 27 2 30 -4 3 -10 -1
-13 -7 -2 -7 -4 2 -3 20 1 18 6 30 11 28 6 -2 11 11 11 28 4 76 54 304 54 245
0 -11 2 -11 10 1 18 28 11 -49 -20 -225 -38 -217 -47 -310 -31 -329 19 -23 -5
-30 -33 -9 -14 10 -30 28 -37 41 -7 12 -19 22 -26 22 -7 0 -16 7 -19 15 -3 8
-15 17 -25 20 -15 5 -18 12 -13 28 6 20 5 20 -10 8 -15 -12 -20 -11 -46 14
-29 28 -29 29 -24 119 3 50 11 116 19 146 7 30 16 87 20 127 4 39 14 80 22 90
13 16 14 13 9 -32 -5 -48 -1 -46 20 10 4 11 6 26 5 34 -1 8 3 17 10 22 10 6
10 27 2 96 -5 48 -9 90 -7 91 1 2 12 -6 23 -17 18 -18 19 -25 10 -78 -6 -32
-15 -119 -20 -193 -14 -203 -18 -278 -13 -245 2 17 11 55 19 85 8 30 17 76 20
103 4 26 10 47 14 47 8 0 16 56 36 243 4 31 11 57 16 57 5 0 9 12 9 28 0 32
10 72 18 72 2 0 2 -24 -1 -52z m20 0 c-3 -7 -5 -2 -5 12 0 14 2 19 5 13 2 -7
2 -19 0 -25z m63 -235 c0 -17 -4 -34 -10 -38 -5 -3 -7 -12 -4 -19 3 -7 -2 -16
-10 -19 -13 -5 -15 2 -10 46 3 29 5 63 5 76 -1 24 -1 24 14 5 8 -10 15 -33 15
-51z m-83 -170 c-3 -10 -5 -4 -5 12 0 17 2 24 5 18 2 -7 2 -21 0 -30z"/>
<path d="M320 2252 c0 -7 -7 -12 -15 -12 -10 0 -15 -9 -14 -27 1 -21 3 -23 6
-8 3 11 13 25 22 31 9 7 13 16 8 20 -4 4 -7 2 -7 -4z"/>
<path d="M310 2191 c0 -5 5 -13 10 -16 6 -3 10 -2 10 4 0 5 -4 13 -10 16 -5 3
-10 2 -10 -4z"/>
<path d="M422 2170 c0 -14 2 -19 5 -12 2 6 2 18 0 25 -3 6 -5 1 -5 -13z"/>
<path d="M1270 3191 c0 -6 18 -22 39 -35 57 -36 63 -50 18 -43 -31 5 -37 3
-37 -12 0 -23 45 -65 60 -56 6 4 20 -1 31 -11 19 -17 20 -17 13 2 -4 10 -14
28 -23 38 -15 18 -15 19 18 13 18 -4 37 -7 40 -7 13 0 51 -40 51 -53 -1 -7 -6
-5 -14 6 -14 18 -32 24 -21 7 3 -5 2 -10 -4 -10 -5 0 -12 6 -15 13 -4 6 -4 -5
-2 -25 3 -26 0 -38 -10 -42 -9 -3 -12 -1 -9 4 3 6 -3 10 -14 10 -11 0 -23 5
-26 10 -8 13 -25 13 -25 0 0 -5 14 -16 30 -25 25 -13 30 -21 30 -53 l-1 -37
-15 28 c-15 28 -28 34 -39 17 -4 -6 -11 -8 -16 -5 -5 4 -9 1 -9 -6 0 -8 -4 -8
-15 1 -8 7 -15 28 -15 47 0 19 -5 43 -11 55 -6 11 -8 22 -5 25 12 12 34 -19
45 -62 14 -57 21 -58 14 -2 -3 26 -13 48 -26 59 -12 9 -26 31 -32 49 -6 18
-21 39 -33 47 -21 14 -22 13 -22 -22 0 -25 -4 -36 -15 -36 -9 0 -12 6 -8 17 4
11 3 14 -6 9 -6 -4 -9 -16 -6 -25 3 -10 -1 -23 -9 -30 -16 -13 -11 -47 12 -73
14 -17 16 -17 27 -1 7 10 11 23 8 30 -7 17 5 17 23 -1 8 -8 14 -32 15 -53 0
-28 2 -33 8 -19 7 17 8 18 14 3 4 -11 -1 -20 -14 -27 -19 -11 -20 -19 -1 -68
3 -8 -6 -6 -27 5 -29 16 -32 22 -29 56 3 32 0 39 -19 43 -13 4 -23 11 -23 17
0 7 -4 7 -12 -1 -8 -8 -13 -41 -13 -87 0 -40 -3 -68 -7 -62 -4 7 -8 20 -8 30
0 9 -4 17 -9 17 -4 0 -7 -13 -5 -30 2 -16 -1 -30 -6 -30 -6 0 -10 21 -11 48
l-1 47 -9 -40 c-6 -22 -7 -50 -4 -62 3 -13 1 -23 -5 -23 -5 0 -10 9 -10 20 0
25 -20 27 -21 3 -1 -12 -4 -9 -8 7 -5 16 -1 35 10 55 9 17 20 41 24 55 7 22 6
23 -8 12 -8 -7 -18 -24 -21 -37 -4 -14 -11 -25 -16 -25 -5 0 -8 6 -6 13 3 6 7
25 10 40 4 15 10 25 15 22 5 -2 11 1 14 8 3 8 -4 14 -18 15 -19 1 -26 -6 -36
-36 -7 -20 -13 -58 -13 -84 -1 -27 -4 -48 -7 -48 -4 0 -10 -20 -14 -45 -3 -25
-10 -43 -15 -40 -5 3 -3 26 5 50 8 28 9 47 4 51 -6 4 -6 11 0 18 6 7 8 16 4
19 -3 4 0 13 7 22 7 8 8 15 4 15 -12 0 -34 -36 -39 -62 -2 -10 -11 -32 -19
-49 -12 -25 -12 -29 0 -29 8 0 14 -4 14 -10 0 -5 -7 -7 -15 -4 -13 6 -17 -1
-14 -23 1 -5 5 -7 10 -5 15 4 10 -47 -7 -73 -9 -14 -14 -34 -11 -45 6 -22 0
-25 -22 -11 -9 6 -10 11 -2 15 16 10 14 23 -4 23 -8 0 -12 -4 -9 -9 3 -4 0
-16 -5 -25 -6 -10 -11 -14 -11 -9 0 5 -7 3 -15 -4 -12 -10 -13 -15 -3 -28 10
-12 10 -16 1 -19 -7 -3 -13 -9 -13 -14 0 -6 5 -7 12 -3 6 4 8 3 5 -2 -3 -6 -8
-41 -11 -79 -3 -39 -8 -88 -10 -110 -2 -21 0 -47 5 -56 4 -9 20 -61 35 -115
20 -76 27 -124 28 -206 1 -112 13 -160 15 -61 1 74 18 232 36 348 8 50 17 126
19 170 4 73 21 135 37 135 4 0 12 -7 19 -15 10 -12 11 -32 2 -93 -6 -43 -14
-86 -17 -97 -6 -17 -5 -18 4 -3 6 9 16 51 23 93 l12 78 18 -49 c15 -39 17 -42
12 -14 -4 19 -7 50 -7 68 0 17 -5 32 -11 33 -6 0 -2 4 9 9 14 5 27 2 45 -14
l24 -21 -17 25 c-9 14 -28 44 -43 68 l-26 44 23 59 22 60 23 -38 c26 -44 40
-93 28 -93 -5 0 -16 17 -26 38 -14 33 -16 34 -17 12 0 -14 13 -43 29 -64 16
-21 27 -43 24 -47 -3 -5 2 -6 10 -3 11 4 16 0 16 -11 0 -9 -4 -13 -10 -10 -15
9 -11 -6 10 -40 21 -33 50 -93 50 -104 0 -4 16 -22 35 -41 28 -27 44 -34 81
-36 25 -2 52 -8 59 -14 7 -6 42 -14 78 -18 56 -7 71 -13 112 -50 85 -75 226
-127 296 -109 20 5 49 19 65 32 l29 24 -66 -6 c-76 -6 -132 3 -108 18 11 7 9
9 -9 9 -35 0 -105 37 -142 75 -25 26 -30 35 -17 35 11 0 14 5 10 17 -4 11 -3
14 5 9 21 -13 102 -34 97 -25 -4 5 26 7 65 5 66 -3 74 -6 108 -39 49 -47 164
-107 207 -107 19 0 37 -4 40 -10 3 -5 16 -10 28 -10 16 0 18 3 9 9 -11 6 -9 9
7 14 22 6 27 -2 36 -66 5 -30 2 -63 -9 -101 -17 -58 -27 -62 -48 -23 -10 19
-9 20 3 10 12 -10 14 -7 13 15 0 22 -8 29 -39 40 -44 14 -63 28 -27 19 32 -7
27 0 -10 17 -22 10 -56 14 -103 12 -38 -2 -81 0 -94 5 -15 6 -28 6 -37 -2 -8
-6 -21 -8 -30 -5 -25 9 -78 -11 -102 -39 -24 -27 -53 -25 -90 9 -20 17 -24 18
-32 6 -13 -20 -13 -24 8 -51 25 -33 33 -57 21 -65 -16 -10 -8 -104 10 -114 22
-13 -1 -12 -34 0 -22 8 -34 6 -60 -10 l-32 -20 -27 21 c-23 18 -31 19 -58 10
-105 -37 -423 -195 -453 -226 -14 -13 -25 -34 -25 -45 0 -19 -4 -21 -32 -15
-18 4 -37 13 -41 19 -5 7 -7 3 -5 -9 2 -14 12 -21 36 -23 45 -4 65 -37 52 -82
-6 -19 -10 -57 -10 -83 0 -43 -12 -83 -29 -97 -3 -3 -16 -24 -29 -48 l-23 -43
84 44 c46 24 93 53 105 63 61 57 70 62 95 60 15 -2 32 3 39 12 11 13 11 14 -1
7 -10 -6 -12 -4 -7 4 5 7 14 10 22 7 8 -3 14 -2 14 2 0 4 27 18 60 31 53 21
70 23 157 18 54 -3 131 -13 172 -22 62 -14 83 -25 134 -69 70 -59 87 -94 63
-131 -13 -20 -25 -25 -59 -25 -24 0 -66 7 -93 15 -27 8 -91 15 -143 17 -78 1
-95 -1 -102 -15 -12 -21 -102 -48 -97 -29 4 16 -15 102 -22 102 -5 0 -6 -9 -3
-20 3 -11 2 -27 -1 -36 -5 -14 -9 -13 -25 7 -11 14 -23 20 -28 15 -4 -5 -2
-11 5 -13 10 -4 10 -8 1 -19 -7 -8 -9 -18 -5 -21 4 -4 11 -1 15 6 6 9 11 10
15 2 4 -6 3 -11 -2 -11 -5 0 -27 -18 -50 -40 -34 -34 -47 -40 -84 -40 -24 0
-54 -3 -68 -6 -25 -6 -25 -6 -5 10 11 10 14 14 6 10 -11 -5 -13 -3 -8 9 7 19
-1 21 -23 7 -8 -5 -10 -10 -5 -10 6 0 2 -5 -8 -11 -9 -5 -22 -7 -29 -3 -6 4
-8 3 -4 -4 3 -6 25 -13 49 -16 108 -15 161 -14 249 6 51 11 140 28 197 38 133
24 149 18 197 -64 66 -111 83 -196 46 -229 -26 -23 -31 -22 -81 23 -43 39 -44
40 -20 48 23 9 23 9 3 16 -11 3 -54 -2 -94 -13 -41 -10 -96 -19 -122 -19 -25
-1 -81 -9 -124 -18 -43 -8 -92 -13 -109 -10 -19 4 -25 3 -16 -3 11 -7 11 -10
0 -15 -15 -6 143 -1 317 10 153 10 184 -14 170 -131 -3 -30 -11 -66 -18 -82
l-12 -28 -3 26 c-4 24 -7 25 -56 23 -53 -3 -237 -36 -312 -56 -49 -14 -73 -33
-30 -24 17 3 89 8 160 11 148 7 169 1 197 -55 22 -44 22 -81 2 -106 -14 -18
-15 -18 -9 6 6 25 6 25 -12 5 -30 -33 -83 -54 -163 -64 -131 -18 -227 -50
-274 -93 -16 -15 -43 -30 -59 -34 -15 -3 -56 -22 -90 -41 -126 -73 -237 -124
-289 -134 -87 -17 -291 -58 -318 -64 -14 -4 -29 -10 -35 -16 -5 -5 525 -9
1413 -9 l1422 0 0 359 0 359 -37 6 c-21 3 -139 20 -263 36 -480 64 -519 71
-575 95 -29 13 -59 34 -65 45 -11 20 -66 60 -82 60 -5 0 -8 -36 -8 -80 0 -91
-10 -118 -63 -168 -39 -38 -113 -63 -97 -32 6 11 5 21 -3 29 -9 10 -9 12 3 9
9 -2 16 6 18 22 2 14 9 30 16 35 7 6 16 20 20 32 4 12 18 39 33 59 15 23 21
40 14 42 -7 2 -5 12 5 28 11 15 12 24 5 24 -15 0 8 44 44 85 21 24 24 25 15 7
-6 -13 -20 -32 -31 -43 -27 -27 -24 -42 5 -16 21 20 66 97 66 114 0 4 -7 -2
-15 -13 -14 -18 -15 -17 -4 8 7 15 16 25 20 22 5 -3 6 1 4 8 -3 8 6 39 20 69
19 40 25 46 21 24 -3 -16 -8 -38 -11 -47 -5 -13 0 -19 22 -23 90 -20 148 -42
151 -57 2 -9 -2 -35 -8 -58 -9 -34 -15 -41 -31 -37 -24 6 -40 -21 -37 -64 3
-39 19 -47 104 -53 38 -3 59 -3 46 0 -16 4 -22 11 -18 21 3 8 6 26 6 39 0 17
6 24 20 24 11 0 20 -7 20 -15 0 -8 9 -15 20 -15 11 0 20 -4 20 -10 0 -5 -6
-10 -14 -10 -32 0 -22 -16 10 -17 18 -1 32 2 29 7 -5 8 78 3 105 -7 8 -3 34
-6 57 -7 34 -1 38 0 25 10 -10 7 -57 15 -105 19 -48 4 -87 12 -87 17 0 5 12 7
28 4 60 -11 164 -17 159 -9 -3 4 18 6 46 4 29 -3 44 -6 35 -8 -10 -3 -18 -11
-18 -18 0 -7 -8 -16 -17 -18 -14 -4 -15 -5 -2 -6 11 -1 14 -9 11 -31 -3 -25
-1 -30 16 -30 16 0 21 9 26 50 4 28 9 50 12 50 3 0 18 -7 33 -15 34 -17 46
-41 25 -49 -9 -3 -13 -10 -10 -15 3 -5 -1 -11 -9 -15 -11 -4 -15 2 -16 22 -2
27 -2 27 -6 2 -3 -14 -9 -28 -14 -31 -8 -5 132 -29 258 -45 l52 -6 1 409 0
410 -154 17 c-132 15 -173 16 -287 6 -74 -6 -167 -10 -206 -8 l-72 3 -26 -58
c-15 -31 -29 -74 -32 -95 -3 -20 -10 -45 -14 -54 -11 -21 -65 -33 -84 -18 -16
13 -15 15 -56 -88 -21 -55 -35 -79 -40 -70 -15 23 -10 49 26 128 19 43 35 91
35 107 0 16 9 53 20 83 l19 55 1 -37 c0 -28 4 -36 14 -32 23 9 28 32 31 147 4
175 37 160 37 -18 1 -69 -3 -89 -22 -120 -14 -22 -28 -34 -36 -31 -16 6 -19
-10 -3 -19 21 -13 51 30 103 147 9 20 16 47 16 60 -1 13 -9 -3 -21 -37 -12
-33 -23 -62 -25 -64 -5 -5 6 129 12 149 4 12 6 13 14 0 12 -19 30 27 30 76 0
29 -3 34 -23 34 -13 0 -29 -6 -36 -12 -12 -11 -13 -9 -6 7 4 11 9 29 11 40 17
104 25 138 43 171 12 21 21 44 21 51 0 7 5 13 10 13 6 0 10 26 10 58 0 31 7
84 16 117 8 33 15 95 15 137 0 55 4 77 12 75 7 -1 11 9 10 26 -1 15 2 25 6 22
9 -5 -4 80 -15 97 -4 6 -1 14 6 18 9 6 9 12 1 29 -7 12 -16 19 -20 17 -4 -3
-8 0 -8 7 -3 42 -11 80 -19 85 -8 7 -40 50 -59 81 -5 10 -4 12 3 7 27 -17 2
49 -27 71 -9 6 -20 9 -25 6 -5 -4 -6 -1 -3 4 9 14 -9 28 -82 64 -34 16 -59 34
-56 39 3 5 -25 32 -61 59 l-67 51 -181 -1 c-110 0 -173 -4 -161 -9 18 -8 17
-9 -8 -9 -16 -1 -26 3 -22 9 4 6 -8 10 -29 10 -26 0 -36 -4 -36 -15 0 -16 -23
-14 -77 6 -18 7 -23 5 -23 -7 0 -12 -7 -14 -32 -9 -18 4 -37 11 -43 16 -19 18
-27 8 -10 -11 17 -18 17 -20 2 -14 -10 4 -17 1 -17 -6 0 -7 -11 -1 -25 14 -29
31 -40 34 -25 6 8 -15 8 -20 -1 -18 -7 2 -14 -6 -16 -17 -3 -16 -2 -17 6 -5 9
12 11 11 11 -6 0 -17 -7 -23 -30 -26 -26 -4 -30 -1 -30 18 0 13 -5 26 -11 30
-8 5 -8 9 1 14 23 14 2 25 -54 28 -34 2 -56 -1 -56 -7z m1090 -181 c7 -13 7
-20 1 -20 -6 0 -15 9 -21 20 -7 13 -7 20 -1 20 6 0 15 -9 21 -20z m-930 -75
c0 -14 -2 -25 -4 -25 -2 0 -6 11 -8 25 -3 14 -1 25 3 25 5 0 9 -11 9 -25z
m-230 -15 c0 -5 -5 -12 -10 -15 -6 -4 -8 -22 -5 -43 6 -35 5 -36 -9 -18 -9 11
-16 39 -16 63 0 41 1 43 20 33 11 -6 20 -15 20 -20z m259 -3 c0 -21 -1 -21 -9
-2 -12 28 -12 37 0 30 6 -3 10 -16 9 -28z m-115 -38 c11 -2 21 -10 24 -17 3
-10 -3 -10 -27 2 -17 9 -31 22 -31 29 0 9 2 9 8 1 4 -7 16 -13 26 -15z m-109
-49 c3 -5 1 -10 -4 -10 -6 0 -11 5 -11 10 0 6 2 10 4 10 3 0 8 -4 11 -10z
m-41 -26 c3 -8 2 -12 -4 -9 -6 3 -10 10 -10 16 0 14 7 11 14 -7z m-241 -34
c-3 -12 -8 -19 -11 -16 -5 6 5 36 12 36 2 0 2 -9 -1 -20z m198 -46 c-3 -44 -5
-46 -17 -29 -16 22 -19 69 -4 60 6 -3 10 1 10 10 0 9 3 14 8 11 4 -2 6 -26 3
-52z m283 -14 c4 -24 3 -28 -2 -15 -14 31 -24 83 -13 65 5 -8 11 -31 15 -50z
m-170 4 c21 -20 20 -32 -1 -30 -20 1 -33 14 -33 34 0 17 15 15 34 -4z m206
-26 c0 -38 -5 -34 -13 10 -4 21 -3 31 3 27 6 -3 10 -20 10 -37z m-266 -28 c18
-81 23 -110 18 -110 -10 0 -42 33 -42 44 0 6 4 5 9 -3 5 -8 11 -9 15 -3 3 6 0
16 -7 24 -7 7 -14 30 -14 52 -1 40 12 38 21 -4z m-241 -5 c-3 -9 -8 -14 -10
-11 -3 3 -2 9 2 15 9 16 15 13 8 -4z m312 -11 c14 -15 25 -33 25 -40 0 -8 5
-14 10 -14 6 0 10 -5 10 -10 0 -7 -7 -7 -22 1 -18 10 -20 9 -14 -6 6 -16 4
-16 -10 -4 -10 8 -12 15 -5 17 16 5 14 16 -9 42 -37 43 -23 55 15 14z m-27
-39 c-3 -3 -9 2 -12 12 -6 14 -5 15 5 6 7 -7 10 -15 7 -18z m-193 -41 c9 -15
12 -23 6 -20 -11 7 -35 46 -28 46 3 0 12 -12 22 -26z m376 -27 c-14 -14 -70 2
-81 22 -15 29 -1 31 46 8 26 -12 40 -25 35 -30z m-581 13 c0 -5 -5 -10 -11
-10 -5 0 -7 5 -4 10 3 6 8 10 11 10 2 0 4 -4 4 -10z m833 -40 c18 0 19 2 7 10
-8 5 -12 12 -8 15 9 9 75 -52 109 -101 16 -23 29 -44 29 -46 0 -2 -17 -4 -37
-5 -27 0 -32 1 -18 7 19 7 18 8 -5 15 -52 16 -114 48 -102 53 9 3 6 8 -10 16
-12 6 -25 22 -26 35 -2 14 0 21 6 17 6 -4 14 -1 19 6 5 10 8 8 11 -4 2 -11 12
-18 25 -18z m-424 -47 c12 -24 42 -66 68 -94 l46 -49 -34 6 c-20 4 -45 19 -62
37 -33 38 -77 123 -77 149 0 30 34 1 59 -49z m187 48 c-18 -7 -66 -3 -66 5 0
2 19 4 43 3 30 0 36 -3 23 -8z m40 -86 c7 -33 17 -72 23 -87 7 -18 7 -28 1
-28 -6 0 -10 4 -10 9 0 5 -15 8 -32 7 -21 0 -32 3 -31 11 2 7 -11 22 -27 35
-17 12 -30 27 -30 34 0 6 -7 17 -15 24 -18 15 -20 34 -2 23 6 -4 18 -8 25 -9
8 -2 23 -11 35 -21 22 -18 22 -18 7 2 -8 11 -21 30 -28 43 -13 23 -12 23 29
20 l42 -3 13 -60z m-165 8 c21 -43 22 -50 4 -28 -25 30 -37 55 -27 55 5 0 15
-12 23 -27z m69 -71 c-7 -3 -19 3 -28 13 -16 15 -15 16 12 4 15 -7 23 -15 16
-17z m35 -12 c3 -5 1 -10 -4 -10 -6 0 -11 5 -11 10 0 6 2 10 4 10 3 0 8 -4 11
-10z m625 -120 c70 -31 86 -44 40 -35 -43 9 -108 45 -135 76 l-20 23 30 -20
c17 -11 55 -31 85 -44z m-455 20 c10 -11 16 -20 13 -20 -3 0 -13 9 -23 20 -10
11 -16 20 -13 20 3 0 13 -9 23 -20z m725 -160 c27 -39 30 -76 20 -251 -9 -170
-28 -259 -70 -326 -27 -44 -66 -43 -74 3 -9 44 -32 61 -216 159 -91 48 -175
93 -188 100 -64 35 -57 86 10 78 25 -4 38 -2 38 6 0 6 -7 11 -15 11 -22 0 -18
27 7 44 28 20 38 20 38 2 0 -24 41 -66 64 -66 13 0 35 9 50 21 27 21 46 18 46
-7 0 -8 9 -14 20 -14 11 0 23 -7 26 -15 4 -8 18 -15 32 -15 20 0 23 3 14 12
-17 17 -15 33 3 18 12 -10 20 -9 42 6 38 24 53 40 46 48 -4 3 1 6 10 6 10 0
14 6 11 14 -3 7 4 41 15 74 12 34 21 73 21 87 0 29 22 61 29 42 2 -7 12 -23
21 -37z m-239 -104 c13 -9 35 -16 49 -17 14 0 19 -3 13 -6 -18 -7 -16 -21 5
-26 13 -4 12 -5 -5 -6 -12 0 -25 -6 -28 -11 -4 -7 -11 -8 -18 -1 -7 5 -39 18
-72 29 -48 16 -70 18 -110 12 -27 -5 -57 -9 -65 -9 -13 -1 -13 0 0 9 8 5 33
10 55 11 l40 1 -45 10 c-38 9 -42 12 -25 19 33 14 179 4 206 -15z m-308 -91
c-10 -13 -25 -27 -33 -30 -8 -4 -2 8 14 24 36 37 43 40 19 6z m-33 -85 c8 -5
11 -10 5 -10 -5 0 -17 5 -25 10 -8 5 -10 10 -5 10 6 0 17 -5 25 -10z m-228
-68 c18 -44 21 -75 6 -66 -11 6 -11 5 0 -8 10 -13 10 -17 -4 -22 -9 -3 -21 -3
-26 1 -7 4 -8 1 -3 -7 6 -9 4 -11 -5 -5 -10 6 -10 10 2 19 8 6 14 19 12 28 -1
10 3 15 11 12 19 -8 13 16 -14 54 -12 18 -27 29 -33 26 -7 -4 -8 -2 -4 4 11
18 45 -4 58 -36z m-37 8 c-3 -5 -10 -10 -16 -10 -5 0 -9 5 -9 10 0 6 7 10 16
10 8 0 12 -4 9 -10z m65 0 c0 -5 -4 -10 -10 -10 -5 0 -10 5 -10 10 0 6 5 10
10 10 6 0 10 -4 10 -10z m-17 -130 c-14 -13 -73 -20 -73 -9 0 6 3 8 8 5 4 -2
18 2 32 9 25 13 49 10 33 -5z m-21 -33 c-21 -12 -21 -14 -5 -32 17 -19 17 -19
-2 -3 -11 8 -28 15 -37 15 -19 0 -14 -12 4 -12 6 0 12 -8 14 -18 2 -18 2 -18
-17 -1 -16 14 -22 15 -32 5 -9 -10 -9 -12 2 -9 10 2 15 -7 16 -30 1 -29 -1
-31 -14 -17 -16 16 -25 78 -10 69 5 -3 9 -1 9 5 0 13 49 39 75 40 19 0 18 -1
-3 -12z m-227 -23 c-26 -20 -55 -36 -55 -30 0 5 63 46 70 46 3 -1 -4 -8 -15
-16z m-195 -206 c0 -19 -16 -5 -17 14 -2 18 0 20 7 8 5 -8 10 -18 10 -22z"/>
<path d="M3188 3140 c-10 -83 -78 -235 -115 -255 -10 -5 -21 -14 -24 -19 -9
-12 -31 -187 -24 -194 3 -3 5 1 5 9 0 8 8 49 17 93 l18 79 50 24 c90 43 86 33
83 189 -3 122 -4 131 -10 74z"/>
<path d="M1118 3013 c-13 -34 -12 -108 3 -131 10 -16 10 -15 5 1 -5 16 -1 47
19 135 8 31 -13 28 -27 -5z"/>
<path d="M1355 3030 c3 -5 8 -10 11 -10 2 0 4 5 4 10 0 6 -5 10 -11 10 -5 0
-7 -4 -4 -10z"/>
<path d="M1066 2984 c-4 -10 -1 -14 6 -12 15 5 23 28 10 28 -5 0 -13 -7 -16
-16z"/>
<path d="M2481 2954 c0 -11 3 -14 6 -6 3 7 2 16 -1 19 -3 4 -6 -2 -5 -13z"/>
<path d="M2501 2944 c0 -11 3 -14 6 -6 3 7 2 16 -1 19 -3 4 -6 -2 -5 -13z"/>
<path d="M2521 2914 c0 -11 3 -14 6 -6 3 7 2 16 -1 19 -3 4 -6 -2 -5 -13z"/>
<path d="M3011 2634 c0 -11 3 -14 6 -6 3 7 2 16 -1 19 -3 4 -6 -2 -5 -13z"/>
<path d="M141 2434 c0 -11 3 -14 6 -6 3 7 2 16 -1 19 -3 4 -6 -2 -5 -13z"/>
<path d="M1335 2285 c30 -25 114 -37 100 -15 -3 6 -14 10 -24 10 -10 0 -35 7
-54 15 -51 21 -57 18 -22 -10z"/>
<path d="M1206 2133 c-4 -5 -11 -8 -14 -8 -20 -2 -52 -18 -52 -26 0 -5 -12 -9
-26 -9 -16 0 -23 -4 -18 -11 4 -6 20 -9 39 -6 29 5 56 1 141 -18 11 -2 21 -11
21 -19 0 -10 -19 -16 -65 -21 -35 -4 -78 -13 -96 -20 -36 -15 -73 -52 -62 -62
4 -4 17 5 29 20 22 27 65 48 95 46 9 0 -1 -7 -23 -15 -40 -14 -85 -57 -85 -81
0 -18 19 -16 27 3 3 8 12 13 20 9 10 -3 13 -1 10 8 -2 7 6 18 20 24 19 9 25 9
30 -3 3 -8 12 -14 20 -14 8 0 11 -5 7 -12 -10 -16 22 -36 51 -30 14 2 34 16
45 30 19 24 21 24 39 7 11 -9 24 -14 30 -11 5 4 12 2 16 -4 11 -17 26 -11 18
8 -5 9 -8 28 -8 42 1 29 -34 69 -52 62 -7 -2 -13 0 -13 6 0 5 14 9 31 8 l31
-2 -24 18 c-13 9 -27 18 -31 18 -5 0 -5 5 -2 10 3 6 0 10 -7 10 -7 0 -19 9
-25 20 -8 12 -22 19 -40 18 -16 -1 -37 1 -49 5 -11 4 -24 4 -28 0z m-19 -39
c-3 -3 -12 -4 -19 -1 -8 3 -5 6 6 6 11 1 17 -2 13 -5z"/>
<path d="M1087 2114 c3 -8 12 -13 20 -10 8 3 17 6 19 6 2 0 4 4 4 8 0 4 -11 9
-25 10 -18 1 -23 -2 -18 -14z"/>
<path d="M3165 2035 l30 -15 -30 1 c-16 1 -39 1 -50 0 l-20 -2 20 -9 c19 -9
19 -9 -2 -16 -13 -3 -23 -13 -23 -21 0 -9 6 -13 13 -10 21 8 38 -8 31 -27 -5
-14 -9 -15 -15 -4 -7 10 -9 9 -9 -3 0 -9 7 -20 16 -23 8 -3 12 -11 9 -17 -4
-5 1 -17 11 -25 17 -14 17 -15 2 -10 -20 6 -25 -10 -5 -17 7 -3 5 -6 -5 -6
-10 -1 -18 -9 -19 -18 -1 -12 -4 -10 -9 7 -8 24 -8 23 -9 -7 -1 -21 3 -32 11
-30 8 1 11 -12 9 -40 -2 -40 -1 -43 23 -43 15 0 27 7 30 18 6 17 27 315 23
318 -1 0 -15 4 -32 7 l-30 6 30 -14z"/>
<path d="M2910 1911 c0 -5 -3 -16 -6 -24 -7 -20 46 -34 57 -15 19 29 10 48
-21 48 -16 0 -30 -4 -30 -9z"/>
<path d="M1330 1885 c0 -9 9 -12 28 -10 15 2 30 4 35 4 4 1 7 5 7 9 0 4 -16 8
-35 9 -23 1 -35 -4 -35 -12z"/>
<path d="M2664 1859 c-16 -17 -16 -22 -4 -29 20 -13 26 -12 40 5 9 11 30 15
79 14 36 -1 60 -4 53 -6 -10 -4 -10 -8 -2 -18 6 -8 15 -26 20 -42 7 -23 8 -18
9 29 l1 57 -52 -1 c-29 -1 -70 1 -90 5 -28 4 -40 1 -54 -14z m23 -15 c-3 -3
-12 -4 -19 -1 -8 3 -5 6 6 6 11 1 17 -2 13 -5z"/>
<path d="M1298 1843 c6 -2 18 -2 25 0 6 3 1 5 -13 5 -14 0 -19 -2 -12 -5z"/>
<path d="M2702 1807 c-12 -13 -22 -25 -22 -28 0 -2 26 -5 58 -5 31 -1 63 -3
71 -5 23 -7 23 18 0 40 -31 28 -80 27 -107 -2z"/>
<path d="M2580 1799 c7 -11 14 -18 17 -15 8 8 -5 36 -17 36 -7 0 -7 -6 0 -21z"/>
<path d="M2641 1784 c0 -11 3 -14 6 -6 3 7 2 16 -1 19 -3 4 -6 -2 -5 -13z"/>
<path d="M2518 1783 c7 -3 16 -2 19 1 4 3 -2 6 -13 5 -11 0 -14 -3 -6 -6z"/>
<path d="M3091 1714 c0 -11 3 -14 6 -6 3 7 2 16 -1 19 -3 4 -6 -2 -5 -13z"/>
<path d="M1124 1261 c3 -5 -5 -16 -18 -24 -29 -20 -41 -77 -16 -77 13 0 16 6
12 25 -2 15 0 25 8 25 14 0 40 25 40 39 0 6 7 11 15 11 8 0 15 -6 15 -14 0
-21 20 -30 33 -16 9 9 7 15 -7 26 -21 15 -91 20 -82 5z"/>
<path d="M1232 1240 c0 -14 2 -19 5 -12 2 6 2 18 0 25 -3 6 -5 1 -5 -13z"/>
<path d="M1205 1200 c-4 -6 -1 -18 6 -26 15 -18 4 -31 -13 -16 -7 5 -24 12
-38 14 -20 2 -25 -2 -26 -19 -1 -26 20 -37 46 -23 10 5 25 7 33 5 21 -9 40 21
33 50 -6 25 -30 34 -41 15z"/>
<path d="M2550 879 c0 -5 10 -9 23 -9 12 0 40 -3 62 -6 27 -4 35 -2 25 4 -21
13 -110 22 -110 11z"/>
<path d="M2713 877 c-45 -15 -41 -23 15 -30 33 -4 51 -1 61 8 12 12 11 16 -13
25 -15 5 -28 9 -29 9 -1 -1 -17 -7 -34 -12z m52 -7 c3 -5 -3 -10 -15 -10 -12
0 -18 5 -15 10 3 6 10 10 15 10 5 0 12 -4 15 -10z"/>
<path d="M305 859 c-112 -14 -237 -51 -274 -81 l-32 -27 3 -122 3 -121 105 78
c104 78 273 232 291 266 11 20 14 20 -96 7z"/>
<path d="M143 83 c-14 -5 -18 -23 -5 -23 5 0 17 7 28 15 14 11 15 14 4 14 -8
0 -21 -3 -27 -6z"/>
</g>
</svg>
